%TF.GenerationSoftware,KiCad,Pcbnew,8.0.2*%
%TF.CreationDate,2026-08-12T10:38:29+07:00*%
%TF.ProjectId,0-10V-to-4-20mA-Converter,302d3130-562d-4746-9f2d-342d32306d41,rev?*%
%TF.SameCoordinates,Original*%
%TF.FileFunction,Copper,L1,Top*%
%TF.FilePolarity,Positive*%
%FSLAX46Y46*%
G04 Gerber Fmt 4.6, Leading zero omitted, Abs format (unit mm)*
G04 Created by KiCad (PCBNEW 8.0.2) date 2026-08-12 10:38:29*
%MOMM*%
%LPD*%
G01*
G04 APERTURE LIST*
G04 Aperture macros list*
%AMRoundRect*
0 Rectangle with rounded corners*
0 $1 Rounding radius*
0 $2 $3 $4 $5 $6 $7 $8 $9 X,Y pos of 4 corners*
0 Add a 4 corners polygon primitive as box body*
4,1,4,$2,$3,$4,$5,$6,$7,$8,$9,$2,$3,0*
0 Add four circle primitives for the rounded corners*
1,1,$1+$1,$2,$3*
1,1,$1+$1,$4,$5*
1,1,$1+$1,$6,$7*
1,1,$1+$1,$8,$9*
0 Add four rect primitives between the rounded corners*
20,1,$1+$1,$2,$3,$4,$5,0*
20,1,$1+$1,$4,$5,$6,$7,0*
20,1,$1+$1,$6,$7,$8,$9,0*
20,1,$1+$1,$8,$9,$2,$3,0*%
G04 Aperture macros list end*
%TA.AperFunction,SMDPad,CuDef*%
%ADD10RoundRect,0.104650X-0.850350X-0.350350X0.850350X-0.350350X0.850350X0.350350X-0.850350X0.350350X0*%
%TD*%
%TA.AperFunction,SMDPad,CuDef*%
%ADD11RoundRect,0.250000X-0.350000X-0.450000X0.350000X-0.450000X0.350000X0.450000X-0.350000X0.450000X0*%
%TD*%
%TA.AperFunction,SMDPad,CuDef*%
%ADD12RoundRect,0.250000X-0.337500X-0.475000X0.337500X-0.475000X0.337500X0.475000X-0.337500X0.475000X0*%
%TD*%
%TA.AperFunction,SMDPad,CuDef*%
%ADD13RoundRect,0.250000X-0.450000X0.350000X-0.450000X-0.350000X0.450000X-0.350000X0.450000X0.350000X0*%
%TD*%
%TA.AperFunction,SMDPad,CuDef*%
%ADD14RoundRect,0.250000X0.450000X-0.350000X0.450000X0.350000X-0.450000X0.350000X-0.450000X-0.350000X0*%
%TD*%
%TA.AperFunction,SMDPad,CuDef*%
%ADD15RoundRect,0.250000X0.337500X0.475000X-0.337500X0.475000X-0.337500X-0.475000X0.337500X-0.475000X0*%
%TD*%
%TA.AperFunction,SMDPad,CuDef*%
%ADD16RoundRect,0.375000X-0.625000X-0.375000X0.625000X-0.375000X0.625000X0.375000X-0.625000X0.375000X0*%
%TD*%
%TA.AperFunction,SMDPad,CuDef*%
%ADD17RoundRect,0.500000X-0.500000X-1.400000X0.500000X-1.400000X0.500000X1.400000X-0.500000X1.400000X0*%
%TD*%
%TA.AperFunction,SMDPad,CuDef*%
%ADD18RoundRect,0.150000X-0.825000X-0.150000X0.825000X-0.150000X0.825000X0.150000X-0.825000X0.150000X0*%
%TD*%
%TA.AperFunction,ComponentPad*%
%ADD19R,3.000000X3.000000*%
%TD*%
%TA.AperFunction,ComponentPad*%
%ADD20C,3.000000*%
%TD*%
%TA.AperFunction,ViaPad*%
%ADD21C,0.600000*%
%TD*%
%TA.AperFunction,Conductor*%
%ADD22C,0.500000*%
%TD*%
%TA.AperFunction,Conductor*%
%ADD23C,0.300000*%
%TD*%
G04 APERTURE END LIST*
D10*
%TO.P,D1,1*%
%TO.N,/V+*%
X116732500Y-80125000D03*
%TO.P,D1,2*%
%TO.N,Net-(J1-Pin_1)*%
X122532500Y-82575000D03*
%TO.P,D1,3*%
%TO.N,/IO*%
X116732500Y-82575000D03*
%TO.P,D1,4*%
%TO.N,Net-(J1-Pin_2)*%
X122532500Y-80125000D03*
%TD*%
D11*
%TO.P,R3,1*%
%TO.N,Net-(R3-Pad1)*%
X113425000Y-74115000D03*
%TO.P,R3,2*%
%TO.N,/I_IN*%
X115425000Y-74115000D03*
%TD*%
D12*
%TO.P,C2,1*%
%TO.N,/IRET_LOCAL*%
X121462500Y-69390000D03*
%TO.P,C2,2*%
%TO.N,/VREG_5V*%
X123537500Y-69390000D03*
%TD*%
D13*
%TO.P,R2,1*%
%TO.N,/Vin*%
X102700000Y-70950000D03*
%TO.P,R2,2*%
%TO.N,Net-(R1-Pad1)*%
X102700000Y-72950000D03*
%TD*%
D14*
%TO.P,R4,1*%
%TO.N,Net-(R4-Pad1)*%
X113325000Y-72065000D03*
%TO.P,R4,2*%
%TO.N,/4V*%
X113325000Y-70065000D03*
%TD*%
D15*
%TO.P,C1,1*%
%TO.N,/V+*%
X121887500Y-77290000D03*
%TO.P,C1,2*%
%TO.N,/IO*%
X119812500Y-77290000D03*
%TD*%
D16*
%TO.P,Q1,1,B*%
%TO.N,Net-(Q1-B)*%
X129400000Y-70350000D03*
%TO.P,Q1,2,C*%
%TO.N,/V+*%
X129400000Y-72650000D03*
D17*
X135700000Y-72650000D03*
D16*
%TO.P,Q1,3,E*%
%TO.N,Net-(Q1-E)*%
X129400000Y-74950000D03*
%TD*%
D13*
%TO.P,R5,1*%
%TO.N,/I_IN*%
X115675000Y-70115000D03*
%TO.P,R5,2*%
%TO.N,Net-(R4-Pad1)*%
X115675000Y-72115000D03*
%TD*%
D18*
%TO.P,U1,1,VREF*%
%TO.N,/4V*%
X118525000Y-71395000D03*
%TO.P,U1,2,IIN*%
%TO.N,/I_IN*%
X118525000Y-72665000D03*
%TO.P,U1,3,IRET*%
%TO.N,/IRET_LOCAL*%
X118525000Y-73935000D03*
%TO.P,U1,4,IO*%
%TO.N,/IO*%
X118525000Y-75205000D03*
%TO.P,U1,5,E*%
%TO.N,Net-(Q1-E)*%
X123475000Y-75205000D03*
%TO.P,U1,6,B*%
%TO.N,Net-(Q1-B)*%
X123475000Y-73935000D03*
%TO.P,U1,7,V+*%
%TO.N,/V+*%
X123475000Y-72665000D03*
%TO.P,U1,8,VREG*%
%TO.N,/VREG_5V*%
X123475000Y-71395000D03*
%TD*%
D11*
%TO.P,R6,1*%
%TO.N,/IN*%
X107450000Y-70300000D03*
%TO.P,R6,2*%
%TO.N,Net-(R3-Pad1)*%
X109450000Y-70300000D03*
%TD*%
D13*
%TO.P,R1,1*%
%TO.N,Net-(R1-Pad1)*%
X102650000Y-74900000D03*
%TO.P,R1,2*%
%TO.N,/IRET_LOCAL*%
X102650000Y-76900000D03*
%TD*%
D19*
%TO.P,J2,1,Pin_1*%
%TO.N,/Vin*%
X96500000Y-73010000D03*
D20*
%TO.P,J2,2,Pin_2*%
%TO.N,/IRET_LOCAL*%
X96500000Y-78090000D03*
%TD*%
D15*
%TO.P,C3,1*%
%TO.N,/VREG_5V*%
X110987500Y-78500000D03*
%TO.P,C3,2*%
%TO.N,/IRET_LOCAL*%
X108912500Y-78500000D03*
%TD*%
D18*
%TO.P,U2,1*%
%TO.N,/IN*%
X105275000Y-72695000D03*
%TO.P,U2,2*%
X105275000Y-73965000D03*
%TO.P,U2,3*%
%TO.N,Net-(R1-Pad1)*%
X105275000Y-75235000D03*
%TO.P,U2,4*%
%TO.N,/IRET_LOCAL*%
X105275000Y-76505000D03*
%TO.P,U2,5*%
X110225000Y-76505000D03*
%TO.P,U2,6*%
%TO.N,Net-(U2-Pad6)*%
X110225000Y-75235000D03*
%TO.P,U2,7*%
X110225000Y-73965000D03*
%TO.P,U2,8*%
%TO.N,/VREG_5V*%
X110225000Y-72695000D03*
%TD*%
D19*
%TO.P,J1,1,Pin_1*%
%TO.N,Net-(J1-Pin_1)*%
X130600000Y-85140000D03*
D20*
%TO.P,J1,2,Pin_2*%
%TO.N,Net-(J1-Pin_2)*%
X130600000Y-80060000D03*
%TD*%
D21*
%TO.N,/IRET_LOCAL*%
X105150000Y-77550000D03*
X107699997Y-78500000D03*
X120300000Y-69400000D03*
X116900000Y-74050000D03*
X111450000Y-76450000D03*
X101550000Y-78000000D03*
%TO.N,/VREG_5V*%
X111350470Y-72667621D03*
X122000000Y-71395000D03*
%TD*%
D22*
%TO.N,/V+*%
X116757500Y-80100000D02*
X116732500Y-80125000D01*
X124550000Y-72690000D02*
X123700000Y-72690000D01*
X121887500Y-77290000D02*
X121887500Y-73527501D01*
X131800000Y-69340000D02*
X131100000Y-68640000D01*
X131100000Y-68640000D02*
X128600000Y-68640000D01*
X131800000Y-71940000D02*
X131800000Y-69340000D01*
X128600000Y-68640000D02*
X124550000Y-72690000D01*
X121887500Y-77290000D02*
X121887500Y-77762500D01*
X131200000Y-72540000D02*
X131800000Y-71940000D01*
X136150000Y-72540000D02*
X131200000Y-72540000D01*
X121887500Y-73527501D02*
X122725001Y-72690000D01*
X121887500Y-77290000D02*
X119077500Y-80100000D01*
X122725001Y-72690000D02*
X123700000Y-72690000D01*
X129850000Y-72540000D02*
X131200000Y-72540000D01*
X119077500Y-80100000D02*
X116757500Y-80100000D01*
%TO.N,/IRET_LOCAL*%
X110425000Y-76862500D02*
X108837500Y-78450000D01*
X105475000Y-76505000D02*
X103045000Y-76505000D01*
X105275000Y-77425000D02*
X105150000Y-77550000D01*
D23*
X120310000Y-69390000D02*
X120300000Y-69400000D01*
X121100000Y-69752500D02*
X121462500Y-69390000D01*
X110280000Y-76450000D02*
X110225000Y-76505000D01*
D22*
X101550000Y-78000000D02*
X102650000Y-76900000D01*
D23*
X117375456Y-73935000D02*
X116900000Y-74050000D01*
X116900000Y-74050000D02*
X117145456Y-73935000D01*
X111450000Y-76450000D02*
X110280000Y-76450000D01*
D22*
X96500000Y-78090000D02*
X101460000Y-78090000D01*
D23*
X121462500Y-69390000D02*
X120310000Y-69390000D01*
X121100000Y-72334999D02*
X121100000Y-69752500D01*
X108912500Y-78500000D02*
X107699997Y-78500000D01*
X118525000Y-73935000D02*
X119499999Y-73935000D01*
D22*
X103045000Y-76505000D02*
X102650000Y-76900000D01*
D23*
X117145456Y-73935000D02*
X117260456Y-73935000D01*
X108500000Y-78500000D02*
X108912500Y-78500000D01*
X118525000Y-73935000D02*
X117375456Y-73935000D01*
D22*
X110425000Y-76505000D02*
X110425000Y-76862500D01*
D23*
X119499999Y-73935000D02*
X121100000Y-72334999D01*
D22*
X105475000Y-76505000D02*
X110425000Y-76505000D01*
X101460000Y-78090000D02*
X101550000Y-78000000D01*
D23*
X108662500Y-78250000D02*
X108500000Y-78500000D01*
D22*
X105275000Y-76505000D02*
X105275000Y-77425000D01*
D23*
%TO.N,/VREG_5V*%
X123475000Y-71395000D02*
X123537500Y-71332500D01*
X111350470Y-72667621D02*
X111350470Y-72689530D01*
X112150000Y-77437500D02*
X111087500Y-78500000D01*
X110252379Y-72667621D02*
X110225000Y-72695000D01*
X111345000Y-72695000D02*
X110425000Y-72695000D01*
X123537500Y-71332500D02*
X123537500Y-69390000D01*
X111350470Y-72667621D02*
X111350470Y-72688337D01*
X123475000Y-71395000D02*
X122000000Y-71395000D01*
X112150000Y-73487867D02*
X112150000Y-77437500D01*
X111350470Y-72688337D02*
X112150000Y-73487867D01*
X111350470Y-72667621D02*
X111500000Y-72817151D01*
X111500000Y-72817151D02*
X111500000Y-72850000D01*
X111350470Y-72689530D02*
X111345000Y-72695000D01*
X111350470Y-72667621D02*
X110252379Y-72667621D01*
D22*
%TO.N,Net-(J1-Pin_2)*%
X130535000Y-80125000D02*
X130600000Y-80060000D01*
X122532500Y-80125000D02*
X130535000Y-80125000D01*
%TO.N,Net-(J1-Pin_1)*%
X122532500Y-82575000D02*
X128035000Y-82575000D01*
X128035000Y-82575000D02*
X130600000Y-85140000D01*
%TO.N,/IO*%
X119812500Y-76292500D02*
X118750000Y-75230000D01*
X114650000Y-80850000D02*
X116375000Y-82575000D01*
X119812500Y-77290000D02*
X119812500Y-76292500D01*
X117010000Y-77290000D02*
X114650000Y-79650000D01*
X116375000Y-82575000D02*
X116732500Y-82575000D01*
X119812500Y-77290000D02*
X117010000Y-77290000D01*
X114650000Y-79650000D02*
X114650000Y-80850000D01*
%TO.N,Net-(Q1-E)*%
X123780000Y-75150000D02*
X123700000Y-75230000D01*
X129850000Y-74840000D02*
X129540000Y-75150000D01*
X129540000Y-75150000D02*
X123780000Y-75150000D01*
%TO.N,Net-(Q1-B)*%
X129110000Y-70240000D02*
X129850000Y-70240000D01*
X125450000Y-73900000D02*
X129110000Y-70240000D01*
X123700000Y-73960000D02*
X123760000Y-73900000D01*
X123760000Y-73900000D02*
X125450000Y-73900000D01*
%TO.N,Net-(R1-Pad1)*%
X102650000Y-74900000D02*
X103000000Y-75250000D01*
X102700000Y-72950000D02*
X102700000Y-74850000D01*
X102700000Y-74850000D02*
X102650000Y-74900000D01*
X105460000Y-75250000D02*
X105475000Y-75235000D01*
X103000000Y-75250000D02*
X105460000Y-75250000D01*
D23*
%TO.N,Net-(R3-Pad1)*%
X112150000Y-72780761D02*
X113425000Y-74055761D01*
X113425000Y-74055761D02*
X113425000Y-74115000D01*
X109500000Y-70700000D02*
X109450000Y-70650000D01*
X113025000Y-74115000D02*
X113425000Y-74115000D01*
X112150000Y-71300000D02*
X112150000Y-72780761D01*
X109450000Y-70650000D02*
X109450000Y-70300000D01*
X109450000Y-70300000D02*
X111150000Y-70300000D01*
X111150000Y-70300000D02*
X112150000Y-71300000D01*
%TO.N,Net-(R4-Pad1)*%
X115675000Y-72115000D02*
X113375000Y-72115000D01*
X113375000Y-72115000D02*
X113325000Y-72065000D01*
%TO.N,/4V*%
X116475000Y-68865000D02*
X114525000Y-68865000D01*
X118750000Y-71420000D02*
X118680000Y-71420000D01*
D22*
X118750000Y-71420000D02*
X118192316Y-71420000D01*
D23*
X116775000Y-69165000D02*
X116475000Y-68865000D01*
X118680000Y-71420000D02*
X116775000Y-69515000D01*
X116775000Y-69515000D02*
X116775000Y-69165000D01*
X114525000Y-68865000D02*
X113325000Y-70065000D01*
%TO.N,/IN*%
X105475000Y-72695000D02*
X105475000Y-72125000D01*
X105475000Y-72695000D02*
X105475000Y-73965000D01*
X105475000Y-72125000D02*
X107300000Y-70300000D01*
X107300000Y-70300000D02*
X107450000Y-70300000D01*
D22*
%TO.N,Net-(U2-Pad6)*%
X110425000Y-75235000D02*
X110425000Y-73965000D01*
%TO.N,/Vin*%
X96500000Y-73010000D02*
X100640000Y-73010000D01*
X100640000Y-73010000D02*
X102700000Y-70950000D01*
D23*
%TO.N,/I_IN*%
X117000000Y-71440000D02*
X115675000Y-70115000D01*
X117425000Y-72690000D02*
X118750000Y-72690000D01*
X116950000Y-72850000D02*
X117000000Y-72800000D01*
X118500000Y-72690000D02*
X117110000Y-72690000D01*
X117000000Y-72800000D02*
X117000000Y-71440000D01*
X115425000Y-74115000D02*
X115685000Y-74115000D01*
X117110000Y-72690000D02*
X116950000Y-72850000D01*
X118525000Y-72665000D02*
X118500000Y-72690000D01*
X115685000Y-74115000D02*
X116950000Y-72850000D01*
%TD*%
%TA.AperFunction,Conductor*%
%TO.N,/IRET_LOCAL*%
G36*
X108299997Y-78350000D02*
G01*
X108299997Y-78650000D01*
X107814802Y-78777164D01*
X107698997Y-78500000D01*
X107814802Y-78222836D01*
X108299997Y-78350000D01*
G37*
%TD.AperFunction*%
%TD*%
%TA.AperFunction,Conductor*%
%TO.N,/IRET_LOCAL*%
G36*
X120889069Y-69237831D02*
G01*
X120896301Y-69243111D01*
X120898011Y-69249202D01*
X120898011Y-69531159D01*
X120894584Y-69539432D01*
X120889506Y-69542414D01*
X120424793Y-69674328D01*
X120415898Y-69673291D01*
X120410802Y-69667584D01*
X120300883Y-69404509D01*
X120300857Y-69395556D01*
X120300862Y-69395542D01*
X120410956Y-69132046D01*
X120417307Y-69125736D01*
X120424505Y-69125188D01*
X120889069Y-69237831D01*
G37*
%TD.AperFunction*%
%TD*%
%TA.AperFunction,Conductor*%
%TO.N,/IRET_LOCAL*%
G36*
X112095536Y-65220207D02*
G01*
X112164777Y-65275426D01*
X112203204Y-65355218D01*
X112208186Y-65397942D01*
X112214825Y-66247700D01*
X112240525Y-69537360D01*
X112232631Y-69594430D01*
X112227402Y-69612427D01*
X112224500Y-69649312D01*
X112224500Y-70115547D01*
X112204793Y-70201890D01*
X112149574Y-70271131D01*
X112069782Y-70309558D01*
X111981218Y-70309558D01*
X111901426Y-70271131D01*
X111884786Y-70256261D01*
X111488015Y-69859490D01*
X111488011Y-69859487D01*
X111362488Y-69787017D01*
X111362489Y-69787017D01*
X111361497Y-69786751D01*
X111352374Y-69784306D01*
X111352371Y-69784305D01*
X111352371Y-69784306D01*
X111222478Y-69749500D01*
X111222475Y-69749500D01*
X110597612Y-69749500D01*
X110511269Y-69729793D01*
X110442028Y-69674574D01*
X110406514Y-69606022D01*
X110401744Y-69589602D01*
X110318081Y-69448135D01*
X110201865Y-69331919D01*
X110201863Y-69331917D01*
X110060399Y-69248256D01*
X109902569Y-69202402D01*
X109865694Y-69199500D01*
X109034306Y-69199500D01*
X109003576Y-69201918D01*
X108997430Y-69202402D01*
X108839600Y-69248256D01*
X108698136Y-69331917D01*
X108590714Y-69439340D01*
X108515726Y-69486459D01*
X108427719Y-69496375D01*
X108344126Y-69467124D01*
X108309286Y-69439340D01*
X108201863Y-69331917D01*
X108060399Y-69248256D01*
X107902569Y-69202402D01*
X107865694Y-69199500D01*
X107034306Y-69199500D01*
X107003576Y-69201918D01*
X106997430Y-69202402D01*
X106839600Y-69248256D01*
X106698136Y-69331917D01*
X106581917Y-69448136D01*
X106498256Y-69589600D01*
X106452402Y-69747430D01*
X106449500Y-69784306D01*
X106449500Y-70289547D01*
X106429793Y-70375890D01*
X106391214Y-70430261D01*
X105034490Y-71786984D01*
X105034489Y-71786985D01*
X104997819Y-71850499D01*
X104997820Y-71850500D01*
X104972129Y-71894999D01*
X104911891Y-71959921D01*
X104829450Y-71992277D01*
X104799789Y-71994500D01*
X104406893Y-71994500D01*
X104318439Y-72005122D01*
X104318431Y-72005124D01*
X104177665Y-72060635D01*
X104177657Y-72060639D01*
X104057077Y-72152079D01*
X104002249Y-72224380D01*
X103934374Y-72281270D01*
X103848537Y-72303076D01*
X103761740Y-72285479D01*
X103691172Y-72231965D01*
X103672398Y-72205433D01*
X103668083Y-72198137D01*
X103560660Y-72090714D01*
X103513541Y-72015726D01*
X103503625Y-71927719D01*
X103532876Y-71844126D01*
X103560660Y-71809286D01*
X103601825Y-71768121D01*
X103668081Y-71701865D01*
X103751744Y-71560398D01*
X103797598Y-71402569D01*
X103800500Y-71365694D01*
X103800500Y-70534306D01*
X103797598Y-70497431D01*
X103751744Y-70339602D01*
X103711251Y-70271131D01*
X103668082Y-70198136D01*
X103551863Y-70081917D01*
X103410399Y-69998256D01*
X103252569Y-69952402D01*
X103215694Y-69949500D01*
X102184306Y-69949500D01*
X102153576Y-69951918D01*
X102147430Y-69952402D01*
X101989600Y-69998256D01*
X101848136Y-70081917D01*
X101731917Y-70198136D01*
X101648256Y-70339600D01*
X101602402Y-70497430D01*
X101599500Y-70534311D01*
X101599500Y-71048126D01*
X101579793Y-71134469D01*
X101541214Y-71188840D01*
X100428840Y-72301214D01*
X100353852Y-72348333D01*
X100288126Y-72359500D01*
X98599499Y-72359500D01*
X98513156Y-72339793D01*
X98443915Y-72284574D01*
X98405488Y-72204782D01*
X98400499Y-72160500D01*
X98400499Y-71478481D01*
X98389917Y-71411667D01*
X98385646Y-71384696D01*
X98328050Y-71271658D01*
X98328049Y-71271657D01*
X98328048Y-71271655D01*
X98238342Y-71181949D01*
X98125307Y-71124355D01*
X98125304Y-71124354D01*
X98125302Y-71124353D01*
X98125300Y-71124353D01*
X98057033Y-71113541D01*
X98031519Y-71109500D01*
X98031518Y-71109500D01*
X94968481Y-71109500D01*
X94874696Y-71124354D01*
X94874694Y-71124354D01*
X94761655Y-71181951D01*
X94671949Y-71271657D01*
X94614355Y-71384692D01*
X94614353Y-71384699D01*
X94599500Y-71478481D01*
X94599500Y-74541518D01*
X94608763Y-74600000D01*
X94614353Y-74635300D01*
X94614354Y-74635303D01*
X94614354Y-74635305D01*
X94671951Y-74748344D01*
X94761657Y-74838050D01*
X94874692Y-74895644D01*
X94874696Y-74895646D01*
X94968481Y-74910500D01*
X98031518Y-74910499D01*
X98125304Y-74895646D01*
X98238342Y-74838050D01*
X98328050Y-74748342D01*
X98385646Y-74635304D01*
X98400500Y-74541519D01*
X98400500Y-73859500D01*
X98420207Y-73773157D01*
X98475426Y-73703916D01*
X98555218Y-73665489D01*
X98599500Y-73660500D01*
X100704068Y-73660500D01*
X100704069Y-73660500D01*
X100829744Y-73635501D01*
X100948127Y-73586465D01*
X100981000Y-73564500D01*
X100987140Y-73560398D01*
X101013679Y-73542665D01*
X101054669Y-73515277D01*
X101266920Y-73303025D01*
X101341904Y-73255910D01*
X101429910Y-73245994D01*
X101513504Y-73275245D01*
X101576128Y-73337868D01*
X101597700Y-73393345D01*
X101599565Y-73392804D01*
X101648256Y-73560399D01*
X101731917Y-73701863D01*
X101789340Y-73759286D01*
X101836459Y-73834274D01*
X101846375Y-73922281D01*
X101817124Y-74005874D01*
X101789340Y-74040714D01*
X101681917Y-74148136D01*
X101598256Y-74289600D01*
X101552402Y-74447430D01*
X101549500Y-74484311D01*
X101549500Y-75315688D01*
X101552402Y-75352569D01*
X101598256Y-75510399D01*
X101681917Y-75651863D01*
X101718982Y-75688928D01*
X101766101Y-75763916D01*
X101776017Y-75851923D01*
X101746766Y-75935516D01*
X101718983Y-75970356D01*
X101607682Y-76081657D01*
X101515642Y-76230878D01*
X101460495Y-76397299D01*
X101450000Y-76500029D01*
X101450000Y-76650000D01*
X102701000Y-76650000D01*
X102787343Y-76669707D01*
X102856584Y-76724926D01*
X102895011Y-76804718D01*
X102900000Y-76849000D01*
X102900000Y-77999999D01*
X103149977Y-77999999D01*
X103149983Y-77999998D01*
X103252695Y-77989506D01*
X103252696Y-77989506D01*
X103419120Y-77934358D01*
X103568342Y-77842317D01*
X103568346Y-77842314D01*
X103692314Y-77718346D01*
X103692317Y-77718342D01*
X103784357Y-77569121D01*
X103839505Y-77402699D01*
X103841964Y-77378626D01*
X103870342Y-77294732D01*
X103932311Y-77231460D01*
X104015595Y-77201340D01*
X104103700Y-77210339D01*
X104141234Y-77227559D01*
X104189800Y-77256281D01*
X104347507Y-77302099D01*
X104347505Y-77302099D01*
X104384363Y-77305000D01*
X105025000Y-77305000D01*
X105525000Y-77305000D01*
X106165637Y-77305000D01*
X106202493Y-77302099D01*
X106360199Y-77256281D01*
X106501556Y-77172682D01*
X106617682Y-77056556D01*
X106701281Y-76915199D01*
X106747098Y-76757495D01*
X106747099Y-76757490D01*
X106747296Y-76755000D01*
X105525000Y-76755000D01*
X105525000Y-77305000D01*
X105025000Y-77305000D01*
X105025000Y-76454000D01*
X105044707Y-76367657D01*
X105099926Y-76298416D01*
X105179718Y-76259989D01*
X105224000Y-76255000D01*
X106747296Y-76255000D01*
X106747295Y-76254999D01*
X106747099Y-76252509D01*
X106747098Y-76252504D01*
X106701281Y-76094800D01*
X106617682Y-75953443D01*
X106593726Y-75929487D01*
X106546607Y-75854499D01*
X106536691Y-75766492D01*
X106565942Y-75682899D01*
X106575877Y-75668530D01*
X106584361Y-75657342D01*
X106639877Y-75516564D01*
X106644598Y-75477247D01*
X106650500Y-75428107D01*
X106650500Y-75041892D01*
X106643418Y-74982923D01*
X106639877Y-74953436D01*
X106622945Y-74910499D01*
X106584364Y-74812665D01*
X106584362Y-74812662D01*
X106584361Y-74812658D01*
X106514278Y-74720240D01*
X106477811Y-74639538D01*
X106479971Y-74551001D01*
X106514280Y-74479757D01*
X106584361Y-74387342D01*
X106639877Y-74246564D01*
X106644598Y-74207247D01*
X106650500Y-74158107D01*
X106650500Y-73771892D01*
X106639877Y-73683439D01*
X106639877Y-73683436D01*
X106606700Y-73599306D01*
X106584364Y-73542665D01*
X106584362Y-73542662D01*
X106584361Y-73542658D01*
X106514278Y-73450240D01*
X106477811Y-73369538D01*
X106479971Y-73281001D01*
X106514280Y-73209757D01*
X106584361Y-73117342D01*
X106639877Y-72976564D01*
X106645099Y-72933081D01*
X106650500Y-72888107D01*
X106650500Y-72501892D01*
X106639877Y-72413439D01*
X106639877Y-72413436D01*
X106610836Y-72339793D01*
X106584364Y-72272665D01*
X106584362Y-72272662D01*
X106584361Y-72272658D01*
X106492922Y-72152078D01*
X106492919Y-72152076D01*
X106484697Y-72141233D01*
X106487534Y-72139081D01*
X106453279Y-72084566D01*
X106443363Y-71996559D01*
X106472614Y-71912966D01*
X106500398Y-71878126D01*
X106919738Y-71458786D01*
X106994726Y-71411667D01*
X107060452Y-71400500D01*
X107865689Y-71400500D01*
X107865694Y-71400500D01*
X107902569Y-71397598D01*
X108060398Y-71351744D01*
X108201865Y-71268081D01*
X108309286Y-71160660D01*
X108384274Y-71113541D01*
X108472281Y-71103625D01*
X108555874Y-71132876D01*
X108590714Y-71160660D01*
X108698136Y-71268082D01*
X108704183Y-71271658D01*
X108839602Y-71351744D01*
X108997431Y-71397598D01*
X109034306Y-71400500D01*
X109034311Y-71400500D01*
X109865689Y-71400500D01*
X109865694Y-71400500D01*
X109902569Y-71397598D01*
X110060398Y-71351744D01*
X110201865Y-71268081D01*
X110318081Y-71151865D01*
X110401744Y-71010398D01*
X110406515Y-70993976D01*
X110449529Y-70916562D01*
X110521873Y-70865477D01*
X110597612Y-70850500D01*
X110839547Y-70850500D01*
X110925890Y-70870207D01*
X110980261Y-70908786D01*
X111541214Y-71469738D01*
X111588333Y-71544726D01*
X111599500Y-71610452D01*
X111599500Y-71768121D01*
X111579793Y-71854464D01*
X111524574Y-71923705D01*
X111444782Y-71962132D01*
X111400500Y-71967121D01*
X111265412Y-71967121D01*
X111169546Y-71990749D01*
X111098200Y-71995112D01*
X111093103Y-71994500D01*
X111093102Y-71994500D01*
X109356898Y-71994500D01*
X109356893Y-71994500D01*
X109268439Y-72005122D01*
X109268431Y-72005124D01*
X109127665Y-72060635D01*
X109127657Y-72060639D01*
X109007078Y-72152078D01*
X108915639Y-72272657D01*
X108915635Y-72272665D01*
X108860124Y-72413431D01*
X108860122Y-72413439D01*
X108849500Y-72501892D01*
X108849500Y-72888107D01*
X108860122Y-72976560D01*
X108860124Y-72976568D01*
X108915635Y-73117334D01*
X108915637Y-73117338D01*
X108915639Y-73117342D01*
X108915641Y-73117345D01*
X108915642Y-73117346D01*
X108985719Y-73209757D01*
X109022188Y-73290464D01*
X109020028Y-73379001D01*
X108985719Y-73450243D01*
X108915642Y-73542653D01*
X108915635Y-73542665D01*
X108860124Y-73683431D01*
X108860122Y-73683439D01*
X108849500Y-73771892D01*
X108849500Y-74158107D01*
X108860122Y-74246560D01*
X108860124Y-74246568D01*
X108915635Y-74387334D01*
X108915637Y-74387338D01*
X108915639Y-74387342D01*
X108915641Y-74387345D01*
X108915642Y-74387346D01*
X108985719Y-74479757D01*
X109022188Y-74560464D01*
X109020028Y-74649001D01*
X108985719Y-74720243D01*
X108915642Y-74812653D01*
X108915635Y-74812665D01*
X108860124Y-74953431D01*
X108860122Y-74953439D01*
X108849500Y-75041892D01*
X108849500Y-75428107D01*
X108860122Y-75516560D01*
X108860124Y-75516568D01*
X108915635Y-75657334D01*
X108915641Y-75657346D01*
X108924123Y-75668530D01*
X108960592Y-75749236D01*
X108958432Y-75837773D01*
X108918071Y-75916605D01*
X108906275Y-75929485D01*
X108882317Y-75953443D01*
X108798718Y-76094800D01*
X108752901Y-76252504D01*
X108752900Y-76252509D01*
X108752704Y-76254999D01*
X108752704Y-76255000D01*
X110276000Y-76255000D01*
X110362343Y-76274707D01*
X110431584Y-76329926D01*
X110470011Y-76409718D01*
X110475000Y-76454000D01*
X110475000Y-76556000D01*
X110455293Y-76642343D01*
X110400074Y-76711584D01*
X110320282Y-76750011D01*
X110276000Y-76755000D01*
X108752704Y-76755000D01*
X108752900Y-76757490D01*
X108752901Y-76757495D01*
X108798718Y-76915198D01*
X108833908Y-76974701D01*
X108860897Y-77059051D01*
X108848615Y-77146759D01*
X108799495Y-77220452D01*
X108723265Y-77265534D01*
X108662621Y-77275000D01*
X108525023Y-77275000D01*
X108525016Y-77275001D01*
X108422304Y-77285493D01*
X108422303Y-77285493D01*
X108255879Y-77340641D01*
X108106657Y-77432682D01*
X108106653Y-77432685D01*
X107982685Y-77556653D01*
X107982682Y-77556657D01*
X107890642Y-77705878D01*
X107835495Y-77872299D01*
X107825000Y-77975029D01*
X107825000Y-78250000D01*
X108963500Y-78250000D01*
X109049843Y-78269707D01*
X109119084Y-78324926D01*
X109157511Y-78404718D01*
X109162500Y-78449000D01*
X109162500Y-79724999D01*
X109299977Y-79724999D01*
X109299983Y-79724998D01*
X109402695Y-79714506D01*
X109402696Y-79714506D01*
X109569120Y-79659358D01*
X109718342Y-79567317D01*
X109718346Y-79567314D01*
X109842314Y-79443346D01*
X109842319Y-79443340D01*
X109846033Y-79437319D01*
X109908132Y-79374175D01*
X109991478Y-79344227D01*
X110079564Y-79353408D01*
X110154944Y-79399899D01*
X110156123Y-79401069D01*
X110248136Y-79493082D01*
X110389600Y-79576743D01*
X110389602Y-79576744D01*
X110547431Y-79622598D01*
X110584306Y-79625500D01*
X110584311Y-79625500D01*
X111390689Y-79625500D01*
X111390694Y-79625500D01*
X111427569Y-79622598D01*
X111585398Y-79576744D01*
X111726865Y-79493081D01*
X111843081Y-79376865D01*
X111926744Y-79235398D01*
X111926745Y-79235396D01*
X111931714Y-79223913D01*
X111932939Y-79224443D01*
X111969634Y-79158397D01*
X112041976Y-79107308D01*
X112129321Y-79092667D01*
X112214368Y-79117374D01*
X112280274Y-79176534D01*
X112313984Y-79258431D01*
X112316716Y-79289774D01*
X112323008Y-80095108D01*
X112390616Y-88748947D01*
X112371585Y-88835440D01*
X112316909Y-88905110D01*
X112237419Y-88944159D01*
X112191623Y-88949500D01*
X93256014Y-88949500D01*
X93243999Y-88949137D01*
X93218839Y-88947615D01*
X92960730Y-88932002D01*
X92936875Y-88929105D01*
X92663668Y-88879038D01*
X92640336Y-88873287D01*
X92375159Y-88790654D01*
X92352690Y-88782133D01*
X92099397Y-88668135D01*
X92078119Y-88656967D01*
X91840429Y-88513278D01*
X91820652Y-88499628D01*
X91601996Y-88328323D01*
X91584009Y-88312387D01*
X91387612Y-88115990D01*
X91371676Y-88098003D01*
X91200371Y-87879347D01*
X91186721Y-87859570D01*
X91043032Y-87621880D01*
X91031864Y-87600602D01*
X90917866Y-87347309D01*
X90909345Y-87324840D01*
X90826712Y-87059663D01*
X90820961Y-87036331D01*
X90770894Y-86763124D01*
X90767997Y-86739268D01*
X90750863Y-86456001D01*
X90750500Y-86443986D01*
X90750500Y-78090000D01*
X94494891Y-78090000D01*
X94515299Y-78375357D01*
X94576112Y-78654903D01*
X94576112Y-78654906D01*
X94676088Y-78922950D01*
X94676090Y-78922955D01*
X94813193Y-79174042D01*
X94813197Y-79174048D01*
X94919882Y-79316562D01*
X94919883Y-79316562D01*
X95898958Y-78337487D01*
X95923978Y-78397890D01*
X95995112Y-78504351D01*
X96085649Y-78594888D01*
X96192110Y-78666022D01*
X96252511Y-78691041D01*
X95273436Y-79670116D01*
X95415951Y-79776802D01*
X95415957Y-79776806D01*
X95667044Y-79913909D01*
X95667049Y-79913911D01*
X95935095Y-80013887D01*
X96214642Y-80074700D01*
X96500000Y-80095108D01*
X96785357Y-80074700D01*
X97064903Y-80013887D01*
X97064906Y-80013887D01*
X97332947Y-79913912D01*
X97584042Y-79776805D01*
X97584043Y-79776805D01*
X97726562Y-79670115D01*
X96747489Y-78691041D01*
X96807890Y-78666022D01*
X96914351Y-78594888D01*
X97004888Y-78504351D01*
X97076022Y-78397890D01*
X97101041Y-78337488D01*
X98080115Y-79316561D01*
X98186805Y-79174043D01*
X98186805Y-79174042D01*
X98268197Y-79024983D01*
X107825001Y-79024983D01*
X107835493Y-79127695D01*
X107835493Y-79127696D01*
X107890641Y-79294120D01*
X107982682Y-79443342D01*
X107982685Y-79443346D01*
X108106653Y-79567314D01*
X108106657Y-79567317D01*
X108255878Y-79659357D01*
X108422299Y-79714504D01*
X108525029Y-79724999D01*
X108662499Y-79724998D01*
X108662500Y-79724998D01*
X108662500Y-78750000D01*
X107825001Y-78750000D01*
X107825001Y-79024983D01*
X98268197Y-79024983D01*
X98323912Y-78922947D01*
X98423887Y-78654906D01*
X98423887Y-78654903D01*
X98484700Y-78375357D01*
X98505108Y-78090000D01*
X98484700Y-77804642D01*
X98423887Y-77525096D01*
X98423887Y-77525093D01*
X98339925Y-77299983D01*
X101450001Y-77299983D01*
X101460493Y-77402695D01*
X101460493Y-77402696D01*
X101515641Y-77569120D01*
X101607682Y-77718342D01*
X101607685Y-77718346D01*
X101731653Y-77842314D01*
X101731657Y-77842317D01*
X101880878Y-77934357D01*
X102047299Y-77989504D01*
X102150029Y-77999999D01*
X102399999Y-77999999D01*
X102400000Y-77999998D01*
X102400000Y-77150000D01*
X101450001Y-77150000D01*
X101450001Y-77299983D01*
X98339925Y-77299983D01*
X98323911Y-77257049D01*
X98323909Y-77257044D01*
X98186806Y-77005957D01*
X98186802Y-77005951D01*
X98080116Y-76863437D01*
X98080116Y-76863436D01*
X97101041Y-77842511D01*
X97076022Y-77782110D01*
X97004888Y-77675649D01*
X96914351Y-77585112D01*
X96807890Y-77513978D01*
X96747488Y-77488958D01*
X97726562Y-76509883D01*
X97726562Y-76509882D01*
X97584048Y-76403197D01*
X97584042Y-76403193D01*
X97332955Y-76266090D01*
X97332950Y-76266088D01*
X97064904Y-76166112D01*
X96785357Y-76105299D01*
X96500000Y-76084891D01*
X96214642Y-76105299D01*
X95935096Y-76166112D01*
X95935093Y-76166112D01*
X95667049Y-76266088D01*
X95667044Y-76266090D01*
X95415959Y-76403192D01*
X95415958Y-76403193D01*
X95273437Y-76509883D01*
X96252512Y-77488958D01*
X96192110Y-77513978D01*
X96085649Y-77585112D01*
X95995112Y-77675649D01*
X95923978Y-77782110D01*
X95898958Y-77842512D01*
X94919883Y-76863437D01*
X94813193Y-77005958D01*
X94813192Y-77005959D01*
X94676090Y-77257044D01*
X94676088Y-77257049D01*
X94576112Y-77525093D01*
X94576112Y-77525096D01*
X94515299Y-77804642D01*
X94494891Y-78090000D01*
X90750500Y-78090000D01*
X90750500Y-67706013D01*
X90750863Y-67693998D01*
X90767997Y-67410731D01*
X90770894Y-67386875D01*
X90820963Y-67113658D01*
X90826709Y-67090346D01*
X90909346Y-66825154D01*
X90917866Y-66802690D01*
X91031864Y-66549397D01*
X91043028Y-66528126D01*
X91186722Y-66290426D01*
X91200371Y-66270652D01*
X91218353Y-66247700D01*
X91371684Y-66051986D01*
X91387604Y-66034017D01*
X91584017Y-65837604D01*
X91601986Y-65821684D01*
X91820654Y-65650369D01*
X91840429Y-65636721D01*
X92078126Y-65493028D01*
X92099390Y-65481867D01*
X92352696Y-65367863D01*
X92375154Y-65359346D01*
X92640346Y-65276709D01*
X92663658Y-65270963D01*
X92936883Y-65220893D01*
X92960724Y-65217997D01*
X93243999Y-65200863D01*
X93256014Y-65200500D01*
X112009193Y-65200500D01*
X112095536Y-65220207D01*
G37*
%TD.AperFunction*%
%TD*%
%TA.AperFunction,Conductor*%
%TO.N,/IRET_LOCAL*%
G36*
X105450000Y-77550000D02*
G01*
X105150000Y-77551000D01*
X104872836Y-77435195D01*
X105025000Y-76979648D01*
X105525000Y-76979648D01*
X105450000Y-77550000D01*
G37*
%TD.AperFunction*%
%TD*%
M02*
