%TF.GenerationSoftware,KiCad,Pcbnew,8.0.2*%
%TF.CreationDate,2026-08-12T10:38:29+07:00*%
%TF.ProjectId,0-10V-to-4-20mA-Converter,302d3130-562d-4746-9f2d-342d32306d41,rev?*%
%TF.SameCoordinates,Original*%
%TF.FileFunction,Copper,L2,Bot*%
%TF.FilePolarity,Positive*%
%FSLAX46Y46*%
G04 Gerber Fmt 4.6, Leading zero omitted, Abs format (unit mm)*
G04 Created by KiCad (PCBNEW 8.0.2) date 2026-08-12 10:38:29*
%MOMM*%
%LPD*%
G01*
G04 APERTURE LIST*
%TA.AperFunction,ComponentPad*%
%ADD10R,3.000000X3.000000*%
%TD*%
%TA.AperFunction,ComponentPad*%
%ADD11C,3.000000*%
%TD*%
%TA.AperFunction,ViaPad*%
%ADD12C,0.600000*%
%TD*%
%TA.AperFunction,Conductor*%
%ADD13C,0.300000*%
%TD*%
G04 APERTURE END LIST*
D10*
%TO.P,J2,1,Pin_1*%
%TO.N,/Vin*%
X96500000Y-73010000D03*
D11*
%TO.P,J2,2,Pin_2*%
%TO.N,/IRET_LOCAL*%
X96500000Y-78090000D03*
%TD*%
D10*
%TO.P,J1,1,Pin_1*%
%TO.N,Net-(J1-Pin_1)*%
X130600000Y-85140000D03*
D11*
%TO.P,J1,2,Pin_2*%
%TO.N,Net-(J1-Pin_2)*%
X130600000Y-80060000D03*
%TD*%
D12*
%TO.N,/IRET_LOCAL*%
X105150000Y-77550000D03*
X107699997Y-78500000D03*
X120300000Y-69400000D03*
X116900000Y-74050000D03*
X111450000Y-76450000D03*
X101550000Y-78000000D03*
%TO.N,/VREG_5V*%
X111350470Y-72667621D03*
X122000000Y-71395000D03*
%TD*%
D13*
%TO.N,/IRET_LOCAL*%
X111450000Y-76450000D02*
X111450000Y-76250000D01*
X111450000Y-76250000D02*
X113650000Y-74050000D01*
X113650000Y-74050000D02*
X116900000Y-74050000D01*
%TO.N,/VREG_5V*%
X113382379Y-72667621D02*
X114655000Y-71395000D01*
X114655000Y-71395000D02*
X122000000Y-71395000D01*
X111350470Y-72667621D02*
X113382379Y-72667621D01*
%TD*%
%TA.AperFunction,Conductor*%
%TO.N,/IRET_LOCAL*%
G36*
X135953736Y-65200726D02*
G01*
X136243796Y-65218271D01*
X136258659Y-65220076D01*
X136540798Y-65271780D01*
X136555335Y-65275363D01*
X136829172Y-65360695D01*
X136843163Y-65366000D01*
X137104743Y-65483727D01*
X137117989Y-65490680D01*
X137363465Y-65639075D01*
X137375776Y-65647573D01*
X137601573Y-65824473D01*
X137612781Y-65834403D01*
X137815596Y-66037218D01*
X137825526Y-66048426D01*
X137945481Y-66201538D01*
X138002422Y-66274217D01*
X138010928Y-66286540D01*
X138159316Y-66532004D01*
X138166275Y-66545263D01*
X138283997Y-66806831D01*
X138289306Y-66820832D01*
X138374635Y-67094663D01*
X138378219Y-67109201D01*
X138429923Y-67391340D01*
X138431728Y-67406205D01*
X138449274Y-67696263D01*
X138449500Y-67703750D01*
X138449500Y-86446249D01*
X138449274Y-86453736D01*
X138431728Y-86743794D01*
X138429923Y-86758659D01*
X138378219Y-87040798D01*
X138374635Y-87055336D01*
X138289306Y-87329167D01*
X138283997Y-87343168D01*
X138166275Y-87604736D01*
X138159316Y-87617995D01*
X138010928Y-87863459D01*
X138002422Y-87875782D01*
X137825526Y-88101573D01*
X137815596Y-88112781D01*
X137612781Y-88315596D01*
X137601573Y-88325526D01*
X137375782Y-88502422D01*
X137363459Y-88510928D01*
X137117995Y-88659316D01*
X137104736Y-88666275D01*
X136843168Y-88783997D01*
X136829167Y-88789306D01*
X136555336Y-88874635D01*
X136540798Y-88878219D01*
X136258659Y-88929923D01*
X136243794Y-88931728D01*
X135953736Y-88949274D01*
X135946249Y-88949500D01*
X93253751Y-88949500D01*
X93246264Y-88949274D01*
X92956205Y-88931728D01*
X92941340Y-88929923D01*
X92659201Y-88878219D01*
X92644663Y-88874635D01*
X92370832Y-88789306D01*
X92356831Y-88783997D01*
X92095263Y-88666275D01*
X92082004Y-88659316D01*
X91836540Y-88510928D01*
X91824217Y-88502422D01*
X91598426Y-88325526D01*
X91587218Y-88315596D01*
X91384403Y-88112781D01*
X91374473Y-88101573D01*
X91197573Y-87875776D01*
X91189075Y-87863465D01*
X91040680Y-87617989D01*
X91033727Y-87604743D01*
X90916000Y-87343163D01*
X90910693Y-87329167D01*
X90851901Y-87140498D01*
X90825363Y-87055335D01*
X90821780Y-87040798D01*
X90770076Y-86758659D01*
X90768271Y-86743794D01*
X90764888Y-86687873D01*
X90750726Y-86453736D01*
X90750500Y-86446249D01*
X90750500Y-83592135D01*
X128599500Y-83592135D01*
X128599500Y-86687870D01*
X128599501Y-86687876D01*
X128605908Y-86747483D01*
X128656202Y-86882328D01*
X128656206Y-86882335D01*
X128742452Y-86997544D01*
X128742455Y-86997547D01*
X128857664Y-87083793D01*
X128857671Y-87083797D01*
X128992517Y-87134091D01*
X128992516Y-87134091D01*
X128999444Y-87134835D01*
X129052127Y-87140500D01*
X132147872Y-87140499D01*
X132207483Y-87134091D01*
X132342331Y-87083796D01*
X132457546Y-86997546D01*
X132543796Y-86882331D01*
X132594091Y-86747483D01*
X132600500Y-86687873D01*
X132600499Y-83592128D01*
X132594091Y-83532517D01*
X132543796Y-83397669D01*
X132543795Y-83397668D01*
X132543793Y-83397664D01*
X132457547Y-83282455D01*
X132457544Y-83282452D01*
X132342335Y-83196206D01*
X132342328Y-83196202D01*
X132207482Y-83145908D01*
X132207483Y-83145908D01*
X132147883Y-83139501D01*
X132147881Y-83139500D01*
X132147873Y-83139500D01*
X132147864Y-83139500D01*
X129052129Y-83139500D01*
X129052123Y-83139501D01*
X128992516Y-83145908D01*
X128857671Y-83196202D01*
X128857664Y-83196206D01*
X128742455Y-83282452D01*
X128742452Y-83282455D01*
X128656206Y-83397664D01*
X128656202Y-83397671D01*
X128605908Y-83532517D01*
X128599501Y-83592116D01*
X128599501Y-83592123D01*
X128599500Y-83592135D01*
X90750500Y-83592135D01*
X90750500Y-78089998D01*
X94494891Y-78089998D01*
X94494891Y-78090001D01*
X94515300Y-78375362D01*
X94576109Y-78654895D01*
X94676091Y-78922958D01*
X94813191Y-79174038D01*
X94813196Y-79174046D01*
X94919882Y-79316561D01*
X94919883Y-79316562D01*
X95898958Y-78337487D01*
X95923978Y-78397890D01*
X95995112Y-78504351D01*
X96085649Y-78594888D01*
X96192110Y-78666022D01*
X96252511Y-78691041D01*
X95273436Y-79670115D01*
X95415960Y-79776807D01*
X95415961Y-79776808D01*
X95667042Y-79913908D01*
X95667041Y-79913908D01*
X95935104Y-80013890D01*
X96214637Y-80074699D01*
X96499999Y-80095109D01*
X96500001Y-80095109D01*
X96785362Y-80074699D01*
X96852941Y-80059998D01*
X128594390Y-80059998D01*
X128594390Y-80060001D01*
X128614804Y-80345433D01*
X128675628Y-80625037D01*
X128775635Y-80893166D01*
X128912770Y-81144309D01*
X128912775Y-81144317D01*
X129084254Y-81373387D01*
X129084270Y-81373405D01*
X129286594Y-81575729D01*
X129286612Y-81575745D01*
X129515682Y-81747224D01*
X129515690Y-81747229D01*
X129766833Y-81884364D01*
X129766832Y-81884364D01*
X129766836Y-81884365D01*
X129766839Y-81884367D01*
X130034954Y-81984369D01*
X130034960Y-81984370D01*
X130034962Y-81984371D01*
X130314566Y-82045195D01*
X130314568Y-82045195D01*
X130314572Y-82045196D01*
X130568220Y-82063337D01*
X130599999Y-82065610D01*
X130600000Y-82065610D01*
X130600001Y-82065610D01*
X130628595Y-82063564D01*
X130885428Y-82045196D01*
X131165046Y-81984369D01*
X131433161Y-81884367D01*
X131684315Y-81747226D01*
X131913395Y-81575739D01*
X132115739Y-81373395D01*
X132287226Y-81144315D01*
X132424367Y-80893161D01*
X132524369Y-80625046D01*
X132585196Y-80345428D01*
X132605610Y-80060000D01*
X132585196Y-79774572D01*
X132524369Y-79494954D01*
X132424367Y-79226839D01*
X132395540Y-79174047D01*
X132287229Y-78975690D01*
X132287224Y-78975682D01*
X132115745Y-78746612D01*
X132115729Y-78746594D01*
X131913405Y-78544270D01*
X131913387Y-78544254D01*
X131684317Y-78372775D01*
X131684309Y-78372770D01*
X131433166Y-78235635D01*
X131433167Y-78235635D01*
X131325915Y-78195632D01*
X131165046Y-78135631D01*
X131165043Y-78135630D01*
X131165037Y-78135628D01*
X130885433Y-78074804D01*
X130600001Y-78054390D01*
X130599999Y-78054390D01*
X130314566Y-78074804D01*
X130034962Y-78135628D01*
X129766833Y-78235635D01*
X129515690Y-78372770D01*
X129515682Y-78372775D01*
X129286612Y-78544254D01*
X129286594Y-78544270D01*
X129084270Y-78746594D01*
X129084254Y-78746612D01*
X128912775Y-78975682D01*
X128912770Y-78975690D01*
X128775635Y-79226833D01*
X128675628Y-79494962D01*
X128614804Y-79774566D01*
X128594390Y-80059998D01*
X96852941Y-80059998D01*
X97064895Y-80013890D01*
X97332958Y-79913908D01*
X97584047Y-79776803D01*
X97726561Y-79670116D01*
X97726562Y-79670115D01*
X96747489Y-78691041D01*
X96807890Y-78666022D01*
X96914351Y-78594888D01*
X97004888Y-78504351D01*
X97076022Y-78397890D01*
X97101041Y-78337488D01*
X98080115Y-79316562D01*
X98080116Y-79316561D01*
X98186803Y-79174047D01*
X98323908Y-78922958D01*
X98423890Y-78654895D01*
X98484699Y-78375362D01*
X98505109Y-78090001D01*
X98505109Y-78089998D01*
X98484699Y-77804637D01*
X98423890Y-77525104D01*
X98323908Y-77257041D01*
X98186808Y-77005961D01*
X98186807Y-77005960D01*
X98080115Y-76863436D01*
X97101041Y-77842510D01*
X97076022Y-77782110D01*
X97004888Y-77675649D01*
X96914351Y-77585112D01*
X96807890Y-77513978D01*
X96747488Y-77488958D01*
X97726562Y-76509883D01*
X97726561Y-76509882D01*
X97584046Y-76403196D01*
X97584038Y-76403191D01*
X97332957Y-76266091D01*
X97332958Y-76266091D01*
X97064895Y-76166109D01*
X96785362Y-76105300D01*
X96500001Y-76084891D01*
X96499999Y-76084891D01*
X96214637Y-76105300D01*
X95935104Y-76166109D01*
X95667041Y-76266091D01*
X95415961Y-76403191D01*
X95415953Y-76403196D01*
X95273437Y-76509882D01*
X95273436Y-76509883D01*
X96252512Y-77488958D01*
X96192110Y-77513978D01*
X96085649Y-77585112D01*
X95995112Y-77675649D01*
X95923978Y-77782110D01*
X95898958Y-77842511D01*
X94919883Y-76863436D01*
X94919882Y-76863437D01*
X94813196Y-77005953D01*
X94813191Y-77005961D01*
X94676091Y-77257041D01*
X94576109Y-77525104D01*
X94515300Y-77804637D01*
X94494891Y-78089998D01*
X90750500Y-78089998D01*
X90750500Y-71462135D01*
X94499500Y-71462135D01*
X94499500Y-74557870D01*
X94499501Y-74557876D01*
X94505908Y-74617483D01*
X94556202Y-74752328D01*
X94556206Y-74752335D01*
X94642452Y-74867544D01*
X94642455Y-74867547D01*
X94757664Y-74953793D01*
X94757671Y-74953797D01*
X94892517Y-75004091D01*
X94892516Y-75004091D01*
X94899444Y-75004835D01*
X94952127Y-75010500D01*
X98047872Y-75010499D01*
X98107483Y-75004091D01*
X98242331Y-74953796D01*
X98357546Y-74867546D01*
X98443796Y-74752331D01*
X98494091Y-74617483D01*
X98500500Y-74557873D01*
X98500499Y-72667617D01*
X110544905Y-72667617D01*
X110544905Y-72667624D01*
X110565100Y-72846870D01*
X110565101Y-72846875D01*
X110624681Y-73017144D01*
X110720654Y-73169883D01*
X110848208Y-73297437D01*
X111000948Y-73393410D01*
X111171209Y-73452987D01*
X111171215Y-73452989D01*
X111171220Y-73452990D01*
X111350466Y-73473186D01*
X111350470Y-73473186D01*
X111350474Y-73473186D01*
X111529719Y-73452990D01*
X111529721Y-73452989D01*
X111529725Y-73452989D01*
X111529728Y-73452987D01*
X111529732Y-73452987D01*
X111619847Y-73421453D01*
X111699992Y-73393410D01*
X111789566Y-73337126D01*
X111855538Y-73318121D01*
X113446450Y-73318121D01*
X113530994Y-73301303D01*
X113572123Y-73293122D01*
X113690506Y-73244086D01*
X113797048Y-73172898D01*
X114888127Y-72081819D01*
X114949450Y-72048334D01*
X114975808Y-72045500D01*
X121494932Y-72045500D01*
X121560904Y-72064506D01*
X121650477Y-72120789D01*
X121650481Y-72120790D01*
X121820737Y-72180366D01*
X121820743Y-72180367D01*
X121820745Y-72180368D01*
X121820746Y-72180368D01*
X121820750Y-72180369D01*
X121999996Y-72200565D01*
X122000000Y-72200565D01*
X122000004Y-72200565D01*
X122179249Y-72180369D01*
X122179252Y-72180368D01*
X122179255Y-72180368D01*
X122349522Y-72120789D01*
X122502262Y-72024816D01*
X122629816Y-71897262D01*
X122725789Y-71744522D01*
X122785368Y-71574255D01*
X122798001Y-71462135D01*
X122805565Y-71395003D01*
X122805565Y-71394996D01*
X122785369Y-71215750D01*
X122785368Y-71215745D01*
X122763222Y-71152455D01*
X122725789Y-71045478D01*
X122629816Y-70892738D01*
X122502262Y-70765184D01*
X122439096Y-70725494D01*
X122349523Y-70669211D01*
X122179254Y-70609631D01*
X122179249Y-70609630D01*
X122000004Y-70589435D01*
X121999996Y-70589435D01*
X121820750Y-70609630D01*
X121820737Y-70609633D01*
X121650481Y-70669209D01*
X121650477Y-70669210D01*
X121560904Y-70725494D01*
X121494932Y-70744500D01*
X114590929Y-70744500D01*
X114465261Y-70769497D01*
X114465255Y-70769499D01*
X114346874Y-70818534D01*
X114240326Y-70889726D01*
X114240325Y-70889727D01*
X113149252Y-71980802D01*
X113087929Y-72014287D01*
X113061571Y-72017121D01*
X111855538Y-72017121D01*
X111789566Y-71998115D01*
X111699992Y-71941831D01*
X111699988Y-71941830D01*
X111529732Y-71882254D01*
X111529719Y-71882251D01*
X111350474Y-71862056D01*
X111350466Y-71862056D01*
X111171220Y-71882251D01*
X111171215Y-71882252D01*
X111000946Y-71941832D01*
X110848207Y-72037805D01*
X110720654Y-72165358D01*
X110624681Y-72318097D01*
X110565101Y-72488366D01*
X110565100Y-72488371D01*
X110544905Y-72667617D01*
X98500499Y-72667617D01*
X98500499Y-71462128D01*
X98494091Y-71402517D01*
X98491288Y-71395003D01*
X98443797Y-71267671D01*
X98443793Y-71267664D01*
X98357547Y-71152455D01*
X98357544Y-71152452D01*
X98242335Y-71066206D01*
X98242328Y-71066202D01*
X98107482Y-71015908D01*
X98107483Y-71015908D01*
X98047883Y-71009501D01*
X98047881Y-71009500D01*
X98047873Y-71009500D01*
X98047864Y-71009500D01*
X94952129Y-71009500D01*
X94952123Y-71009501D01*
X94892516Y-71015908D01*
X94757671Y-71066202D01*
X94757664Y-71066206D01*
X94642455Y-71152452D01*
X94642452Y-71152455D01*
X94556206Y-71267664D01*
X94556202Y-71267671D01*
X94505908Y-71402517D01*
X94499501Y-71462116D01*
X94499501Y-71462123D01*
X94499500Y-71462135D01*
X90750500Y-71462135D01*
X90750500Y-67703750D01*
X90750726Y-67696263D01*
X90768271Y-67406205D01*
X90770076Y-67391340D01*
X90821780Y-67109201D01*
X90825364Y-67094663D01*
X90902096Y-66848422D01*
X90910696Y-66820822D01*
X90915998Y-66806841D01*
X91033731Y-66545249D01*
X91040676Y-66532016D01*
X91189080Y-66286526D01*
X91197567Y-66274230D01*
X91374480Y-66048417D01*
X91384395Y-66037226D01*
X91587226Y-65834395D01*
X91598417Y-65824480D01*
X91824230Y-65647567D01*
X91836526Y-65639080D01*
X92082016Y-65490676D01*
X92095249Y-65483731D01*
X92356841Y-65365998D01*
X92370822Y-65360696D01*
X92644668Y-65275362D01*
X92659197Y-65271780D01*
X92941344Y-65220075D01*
X92956201Y-65218271D01*
X93246264Y-65200726D01*
X93253751Y-65200500D01*
X93315892Y-65200500D01*
X135884108Y-65200500D01*
X135946249Y-65200500D01*
X135953736Y-65200726D01*
G37*
%TD.AperFunction*%
%TD*%
M02*
